<svg width="376" height="61" viewBox="0 0 376 61" fill="none" xmlns="http://www.w3.org/2000/svg">
<path d="M34.1947 23.9718C38.7533 23.9718 40.8053 21.7398 40.8053 19.2612C40.8053 16.8625 39.1347 15.8705 35.3347 15.8705H27.964L25.988 23.9718H34.1947ZM29.484 44.4718C33.8147 44.4718 36.3987 42.4052 36.3987 39.5118C36.3987 37.0318 34.4987 35.8758 30.6987 35.8758H23.0253L20.896 44.4718H29.484ZM14.2853 1.23984H37.8427C54.18 1.23984 58.132 7.77051 58.132 14.8798C58.132 21.9052 53.8 27.7745 45.6693 30.0892C50.684 31.4945 54.332 35.5452 54.332 41.4972C54.332 51.2505 47.1893 59.1038 28.952 59.1038H0L14.2853 1.23984Z" fill="#2E3192"/>
<path d="M89.3606 28.7661C95.2873 28.7661 98.4033 25.7915 98.4033 22.1541C98.4033 20.9955 98.0233 19.9221 97.2633 19.0941C96.2753 18.0208 94.5273 17.4421 92.0206 17.4421H85.7126L82.9006 28.7661H89.3606ZM71.9593 1.23947H92.7033C102.506 1.23947 108.738 3.55547 112.309 7.4408C115.273 10.6635 116.489 14.9608 116.489 19.5088C116.489 28.5181 112.157 36.2901 101.67 39.8435L109.042 59.1035H89.8926L83.9659 42.5715H79.5579L75.4539 59.1035H57.6726L71.9593 1.23947Z" fill="#2E3192"/>
<path d="M129.86 1.24001H147.641L133.356 59.1027H115.575L129.86 1.24001Z" fill="#2E3192"/>
<path d="M142.777 49.7622L152.96 36.5368C159.039 42.0742 165.271 44.7195 170.893 44.7195C173.173 44.7195 174.769 43.8102 174.769 42.1568C174.769 40.3395 173.78 39.7608 166.029 36.6195C156.152 32.6515 151.516 28.8488 151.516 20.3355C151.516 9.17548 160.939 0.0821515 175.452 0.0821515C184.951 0.0821515 193.387 3.38882 199.161 8.76215L188.979 21.9875C184.951 18.4328 179.252 15.5395 173.629 15.5395C171.349 15.5395 169.753 16.2008 169.753 17.8542C169.753 19.5915 170.893 19.9221 178.264 22.8981C187.307 26.5341 193.083 30.6675 193.083 39.5128C193.083 51.1688 184.268 60.2608 168.993 60.2608C158.431 60.2608 149.236 56.1262 142.777 49.7622Z" fill="#2E3192"/>
<path d="M199.844 34.9667C199.844 19.1773 211.015 -1.79835e-06 233.963 -1.79835e-06C245.438 -1.79835e-06 253.568 6.612 255.772 16.8627L239.891 24.3853C238.751 19.6733 235.635 17.36 231.608 17.36C223.628 17.36 218.462 25.2947 218.462 33.2293C218.462 39.5947 222.11 43.1493 226.82 43.1493C230.924 43.1493 234.267 41 237.155 37.1147L249.466 47.696C244.146 55.3013 236.395 60.3427 225.072 60.3427C210.179 60.3427 199.844 50.5067 199.844 34.9667Z" fill="#2E3192"/>
<path d="M348.17 28.7661C354.097 28.7661 357.213 25.7915 357.213 22.1541C357.213 20.9955 356.833 19.9221 356.073 19.0941C355.085 18.0208 353.337 17.4421 350.83 17.4421H344.522L341.71 28.7661H348.17ZM330.769 1.23947H351.513C361.315 1.23947 367.547 3.55547 371.118 7.4408C374.082 10.6635 375.298 14.9608 375.298 19.5088C375.298 28.5181 370.966 36.2901 360.479 39.8435L367.851 59.1035H348.702L342.775 42.5715H338.367L334.263 59.1035H316.482L330.769 1.23947Z" fill="#2E3192"/>
<path d="M281.174 37.817H281.226L289.457 23.765L281.174 37.817Z" fill="#2E3192"/>
<path d="M303.668 1.03303H286.037L249.259 59.309H268.637L289.457 23.765L292.801 59.309H311.723L303.668 1.03303Z" fill="#2E3192"/>
<path d="M264.568 59.309H282.749L325.234 13.6664H308.921L264.568 59.309Z" fill="#ED1C24"/>
</svg>
