<svg width="280" height="45" viewBox="0 0 280 45" fill="none" xmlns="http://www.w3.org/2000/svg">
<path d="M25.4907 17.87C28.8893 17.87 30.4187 16.206 30.4187 14.358C30.4187 12.5714 29.172 11.8314 26.34 11.8314H20.8453L19.372 17.87H25.4907ZM21.9787 33.1514C25.2067 33.1514 27.132 31.6114 27.132 29.454C27.132 27.606 25.7173 26.7434 22.884 26.7434H17.164L15.576 33.1514H21.9787ZM10.6493 0.924695H28.2093C40.388 0.924695 43.3333 5.79269 43.3333 11.0927C43.3333 16.33 40.104 20.7047 34.044 22.43C37.7827 23.478 40.5013 26.4967 40.5013 30.934C40.5013 38.2047 35.1773 44.0594 21.5813 44.0594H0L10.6493 0.924695Z" fill="white"/>
<path d="M66.613 21.4436C71.0304 21.4436 73.3544 19.2263 73.3544 16.5143C73.3544 15.6516 73.0717 14.8516 72.5037 14.2343C71.7677 13.4343 70.465 13.0023 68.5957 13.0023H63.8944L61.7984 21.4436H66.613ZM53.641 0.924925H69.105C76.413 0.924925 81.057 2.65026 83.721 5.54626C85.929 7.94892 86.8357 11.1543 86.8357 14.5423C86.8357 21.2596 83.6064 27.0516 75.7904 29.7009L81.285 44.0583H67.0104L62.5917 31.7343H59.3064L56.2477 44.0583H42.9917L53.641 0.924925Z" fill="white"/>
<path d="M96.8031 0.92469H110.058L99.4085 44.0594H86.1538L96.8031 0.92469Z" fill="white"/>
<path d="M106.432 37.0952L114.023 27.2365C118.555 31.3645 123.2 33.3365 127.392 33.3365C129.091 33.3365 130.28 32.6592 130.28 31.4272C130.28 30.0712 129.544 29.6392 123.765 27.2979C116.403 24.3405 112.947 21.5059 112.947 15.1592C112.947 6.84054 119.971 0.0618731 130.791 0.0618731C137.869 0.0618731 144.159 2.52721 148.463 6.53254L140.873 16.3912C137.869 13.7419 133.623 11.5845 129.431 11.5845C127.732 11.5845 126.541 12.0779 126.541 13.3112C126.541 14.6045 127.392 14.8512 132.887 17.0685C139.627 19.7805 143.932 22.8619 143.932 29.4552C143.932 38.1432 137.361 44.9219 125.975 44.9219C118.101 44.9219 111.247 41.8392 106.432 37.0952Z" fill="white"/>
<path d="M148.973 26.0653C148.973 14.296 157.301 -1.34059e-06 174.406 -1.34059e-06C182.959 -1.34059e-06 189.021 4.92933 190.665 12.5707L178.826 18.1773C177.975 14.6667 175.654 12.9413 172.651 12.9413C166.703 12.9413 162.85 18.856 162.85 24.772C162.85 29.516 165.57 32.1667 169.082 32.1667C172.142 32.1667 174.634 30.564 176.786 27.668L185.963 35.5547C181.998 41.224 176.221 44.9827 167.779 44.9827C156.677 44.9827 148.973 37.6507 148.973 26.0653Z" fill="white"/>
<path d="M259.54 21.4436C263.959 21.4436 266.283 19.2263 266.283 16.5143C266.283 15.6516 266 14.8516 265.432 14.2343C264.695 13.4343 263.392 13.0023 261.523 13.0023H256.821L254.727 21.4436H259.54ZM246.568 0.924925H262.033C269.34 0.924925 273.985 2.65026 276.648 5.54626C278.856 7.94892 279.763 11.1543 279.763 14.5423C279.763 21.2596 276.535 27.0516 268.717 29.7009L274.213 44.0583H259.937L255.519 31.7343H252.235L249.175 44.0583H235.919L246.568 0.924925Z" fill="white"/>
<path d="M215.699 17.562L216.616 28.0367H216.775L215.699 17.562Z" fill="white"/>
<path d="M209.525 28.0374H209.562L215.699 17.5627L209.525 28.0374Z" fill="white"/>
<path d="M226.291 0.616692H213.151L185.734 44.0594H200.179L215.699 17.562L218.193 44.0594H232.297L226.291 0.616692Z" fill="white"/>
<path d="M197.145 44.0588H210.699L242.369 10.0335H230.209L197.145 44.0588Z" fill="white"/>
</svg>
