<svg width="594" height="592" viewBox="0 0 594 592" fill="none" xmlns="http://www.w3.org/2000/svg">
<path fill-rule="evenodd" clip-rule="evenodd" d="M423.877 427.417C426.693 434.732 434.469 443.547 442.109 447.161C463.672 457.429 555.019 476.757 544.427 414.516C520.943 409.872 444.456 415.268 423.877 427.417ZM152.556 447.161C160.195 443.547 167.976 434.732 170.788 427.417C150.212 415.268 73.7227 409.872 50.2427 414.516C39.6467 476.757 130.997 457.429 152.556 447.161V447.161ZM195.019 447.068C195.019 465.453 210.065 480.461 228.389 480.461H366.279C384.604 480.461 399.645 465.453 399.645 447.068V424.039C399.645 405.697 384.604 390.64 366.279 390.64H228.389C210.065 390.64 195.019 405.697 195.019 424.039V447.068ZM265.368 78.5987C319.877 61.3387 377.713 91.2627 394.915 144.965C412.539 199.468 383.013 257.299 328.5 274.933C274.837 292.145 216.673 262.597 199.472 208.144C182.224 154.44 211.704 95.7174 265.368 78.5987V78.5987ZM160.947 85.1174C167.881 91.6374 167.084 108.896 165.024 114.196C162.116 119.169 153.119 121.185 143.747 119.544C134.699 117.527 124.903 126.109 122.373 139.243C119.513 151.579 124.481 163.397 133.48 165.461C143.277 167.524 150.26 183.519 150.681 188.867C151.477 194.167 144.965 201.155 135.917 203.593C126.543 206.924 122.795 219.587 126.543 231.875C130.199 244.212 141.212 251.999 150.26 249.137C158.837 245.853 168.725 247.496 171.163 252.42C174.021 256.5 177.253 273.713 170.74 281.077C165.024 288.067 167.508 300.729 176.928 309.36C186.301 317.989 199.847 319.632 205.985 312.643C212.127 305.7 229.327 307.343 234.671 309.36C239.591 311.423 242.075 320.897 240.387 329.857C237.952 339.705 246.528 349.555 259.649 351.995C271.976 354.855 283.88 349.555 285.897 340.128C288.383 331.123 303.94 323.336 309.235 322.913C314.581 322.493 321.565 329.435 324.424 338.111C327.705 347.117 339.984 351.571 352.265 347.117C364.541 343.411 372.325 332.717 369.041 324.135C366.183 314.707 376.448 300.307 380.948 297.071C385.027 293.788 394.489 296.649 401.427 302.795C408.364 309.36 421.068 306.92 430.065 297.071C438.315 287.223 439.953 274.511 433.016 267.992C425.987 261.379 427.628 244.212 430.065 239.24C432.175 234.363 441.172 231.875 450.172 233.939C460.016 236.003 469.86 226.999 472.341 214.661C475.2 201.529 469.86 189.711 460.391 187.647C451.437 185.959 444.031 170.012 443.191 164.664C442.815 158.895 449.751 152.799 458.375 149.467C467.795 146.605 471.919 134.272 467.795 122.028C463.672 109.272 453.079 101.956 444.456 104.816C435.453 107.255 420.691 97.452 417.412 93.2787C414.177 88.4 417.036 79.396 423.552 72.4067C430.065 65.4667 427.208 52.2853 417.412 43.7013C407.945 35.072 394.915 33.4774 388.307 40.372C382.164 47.4094 364.541 46.6094 360.091 44.1254C355.123 42.0147 352.265 32.2107 354.281 23.1587C356.763 14.2 347.344 4.30402 335.063 1.44269C322.409 -0.99598 310.503 3.8814 308.021 13.3547C306.377 22.7841 290.399 30.1947 285.101 30.5694C279.712 30.5694 273.195 24.472 269.916 14.9974C267.009 5.99071 254.776 2.28673 242.449 5.99073C230.124 9.6974 222.391 20.2974 225.249 29.772C227.687 38.7774 218.313 52.708 213.345 55.992C208.847 59.3227 199.847 56.788 192.863 50.268C185.925 44.1253 172.804 46.9854 164.227 55.992C155.603 65.84 153.915 79.396 160.947 85.1174V85.1174ZM102.077 573.705C111.873 566.805 109.201 552.175 109.905 535.339C175.849 530.745 419.005 530.745 484.669 535.339C485.369 551.705 482.651 566.669 492.541 573.705H102.077ZM64.0213 271.556C53.288 270.805 36.8373 275.495 31.7293 282.953C10.308 314.239 64.6773 309.829 79.9547 310.532C70.0667 318.928 32.2894 358.563 30.04 367.943C27.5094 378.448 27.5094 462.219 27.2734 480.273C26.948 504.571 21.604 559.729 39.508 573.705H9.74668C4.82668 573.705 0.794678 577.737 0.794678 582.664C0.794678 587.588 4.82668 591.62 9.74668 591.62H584.919C589.844 591.62 593.872 587.588 593.872 582.664C593.872 577.737 589.844 573.705 584.919 573.705H554.972C577.703 555.32 564.579 461.279 565.093 428.073C566.123 366.909 564.203 349.651 514.615 310.532C530.833 309.784 579.579 315.644 564.016 284.876C559.328 275.589 529.521 263.957 518.505 276.809C496.195 302.887 498.588 274.84 478.197 245.479C475.995 241.068 473.981 237.084 472.011 233.423C469.669 236.049 467 238.255 463.997 239.804L497.883 305.467C477.213 305.325 456.407 304.48 435.503 303.451C425.331 314.003 407.571 320.1 395.899 309.029C393.976 307.343 388.495 303.779 385.588 304.013C382.257 306.733 375.932 317.24 376.964 321.601C377.479 323.008 377.855 324.509 377.995 326.057C379.544 339.987 367.213 351.245 354.888 354.995C340.828 360.06 322.175 356.309 316.596 340.925L316.503 340.737C315.661 338.159 312.421 332.248 309.615 331.263C305.487 332.06 295.269 338.159 294.007 342.191C290.399 357.904 272.209 363.391 257.964 360.153C242.919 357.251 228.389 344.629 232.232 328.168C232.703 325.543 232.796 319.256 231.108 316.96C226.843 315.739 214.844 315.177 212.219 318.131C201.44 330.467 181.989 325.305 171.304 315.504C167.881 312.361 164.883 308.329 162.727 303.917C140.088 305.091 117.919 305.841 96.6893 305.467C103.484 288.347 111.78 272.821 121.153 256.172C122.888 253.077 124.435 250.263 125.841 247.636C123.216 244.585 121.153 241.068 119.655 237.459C109.812 252.608 101.376 269.256 96.8293 278.217C81.784 307.859 84.5013 273.059 64.0213 271.556" fill="#ED1C24"/>
<path fill-rule="evenodd" clip-rule="evenodd" d="M353.013 225.967L325.691 198.623L328.547 195.713L355.917 223.105L353.013 225.967ZM346.544 232.484L319.175 205.095L322.081 202.233L349.404 229.579L346.544 232.484ZM328.5 187.787C327.8 187.084 326.907 186.709 325.919 186.709C324.935 186.709 324.049 187.084 323.347 187.787L320.159 190.931C314.956 185.677 310.503 181.315 306.191 177.001L321.516 161.615L327.937 155.189C337.033 158.849 347.528 156.739 354.467 149.796C360.748 143.557 363.139 134.364 360.748 125.829L360.041 123.389L343.407 140.087L329.531 126.204L346.172 109.505L343.779 108.852C335.248 106.459 326.065 108.852 319.784 115.087C312.893 122.028 310.784 132.583 314.44 141.637L308.021 148.107V148.06V148.107L292.599 163.492C284.868 155.847 275.539 146.56 261.667 132.676C261.667 132.676 261.667 132.629 261.619 132.583L254.963 121.185C254.869 120.999 254.728 120.809 254.541 120.671L243.295 112.884C242.684 112.461 241.84 112.556 241.327 113.071L236.309 118.089C235.748 118.604 235.699 119.451 236.124 120.06L243.903 131.317C244.043 131.504 244.231 131.644 244.417 131.787L255.807 138.447C255.855 138.447 255.855 138.447 255.903 138.447C269.305 151.86 278.819 161.38 286.836 169.307L271.416 184.692L264.993 191.119C255.948 187.46 245.403 189.571 238.468 196.512C232.232 202.749 229.843 211.943 232.232 220.48L232.889 222.917L249.573 206.219L263.447 220.103L246.761 236.801L249.197 237.459C257.731 239.851 266.915 237.459 273.149 231.22C280.085 224.279 282.195 213.727 278.539 204.673L284.96 198.199L300.377 182.769C304.927 187.272 309.377 191.68 314.393 196.747L311.257 199.888C310.552 200.592 310.177 201.483 310.177 202.469C310.177 203.453 310.552 204.343 311.257 205.048L346.593 240.413C347.292 241.116 348.188 241.492 349.172 241.492C350.156 241.492 351.044 241.116 351.745 240.413L363.844 228.311C364.541 227.609 364.917 226.716 364.917 225.732C364.917 224.748 364.541 223.857 363.844 223.152L328.5 187.787" fill="#2E3192"/>
</svg>
