<svg width="732" height="765" viewBox="0 0 732 765" fill="none" xmlns="http://www.w3.org/2000/svg">
<path fill-rule="evenodd" clip-rule="evenodd" d="M492.877 427.417C495.693 434.732 503.469 443.547 511.109 447.161C532.672 457.429 624.019 476.757 613.427 414.516C589.943 409.872 513.456 415.268 492.877 427.417ZM221.556 447.161C229.195 443.547 236.976 434.732 239.788 427.417C219.212 415.268 142.723 409.872 119.243 414.516C108.647 476.757 199.997 457.429 221.556 447.161V447.161ZM264.019 447.068C264.019 465.453 279.065 480.461 297.389 480.461H435.279C453.604 480.461 468.645 465.453 468.645 447.068V424.039C468.645 405.697 453.604 390.64 435.279 390.64H297.389C279.065 390.64 264.019 405.697 264.019 424.039V447.068ZM334.368 78.5987C388.877 61.3387 446.713 91.2627 463.915 144.965C481.539 199.468 452.013 257.299 397.5 274.933C343.837 292.145 285.673 262.597 268.472 208.144C251.224 154.44 280.704 95.7174 334.368 78.5987V78.5987ZM229.947 85.1174C236.881 91.6374 236.084 108.896 234.024 114.196C231.116 119.169 222.119 121.185 212.747 119.544C203.699 117.527 193.903 126.109 191.373 139.243C188.513 151.579 193.481 163.397 202.48 165.461C212.277 167.524 219.26 183.519 219.681 188.867C220.477 194.167 213.965 201.155 204.917 203.593C195.543 206.924 191.795 219.587 195.543 231.875C199.199 244.212 210.212 251.999 219.26 249.137C227.837 245.853 237.725 247.496 240.163 252.42C243.021 256.5 246.253 273.713 239.74 281.077C234.024 288.067 236.508 300.729 245.928 309.36C255.301 317.989 268.847 319.632 274.985 312.643C281.127 305.7 298.327 307.343 303.671 309.36C308.591 311.423 311.075 320.897 309.387 329.857C306.952 339.705 315.528 349.555 328.649 351.995C340.976 354.855 352.88 349.555 354.897 340.128C357.383 331.123 372.94 323.336 378.235 322.913C383.581 322.493 390.565 329.435 393.424 338.111C396.705 347.117 408.984 351.571 421.265 347.117C433.541 343.411 441.325 332.717 438.041 324.135C435.183 314.707 445.448 300.307 449.948 297.071C454.027 293.788 463.489 296.649 470.427 302.795C477.364 309.36 490.068 306.92 499.065 297.071C507.315 287.223 508.953 274.511 502.016 267.992C494.987 261.379 496.628 244.212 499.065 239.24C501.175 234.363 510.172 231.875 519.172 233.939C529.016 236.003 538.86 226.999 541.341 214.661C544.2 201.529 538.86 189.711 529.391 187.647C520.437 185.959 513.031 170.012 512.191 164.664C511.815 158.895 518.751 152.799 527.375 149.467C536.795 146.605 540.919 134.272 536.795 122.028C532.672 109.272 522.079 101.956 513.456 104.816C504.453 107.255 489.691 97.452 486.412 93.2787C483.177 88.4 486.036 79.396 492.552 72.4067C499.065 65.4667 496.208 52.2853 486.412 43.7013C476.945 35.072 463.915 33.4774 457.307 40.372C451.164 47.4094 433.541 46.6094 429.091 44.1254C424.123 42.0147 421.265 32.2107 423.281 23.1587C425.763 14.2 416.344 4.30402 404.063 1.44269C391.409 -0.99598 379.503 3.8814 377.021 13.3547C375.377 22.7841 359.399 30.1947 354.101 30.5694C348.712 30.5694 342.195 24.472 338.916 14.9974C336.009 5.99071 323.776 2.28673 311.449 5.99073C299.124 9.6974 291.391 20.2974 294.249 29.772C296.687 38.7774 287.313 52.708 282.345 55.992C277.847 59.3227 268.847 56.788 261.863 50.268C254.925 44.1253 241.804 46.9854 233.227 55.992C224.603 65.84 222.915 79.396 229.947 85.1174V85.1174ZM171.077 573.705C180.873 566.805 178.201 552.175 178.905 535.339C244.849 530.745 488.005 530.745 553.669 535.339C554.369 551.705 551.651 566.669 561.541 573.705H171.077ZM133.021 271.556C122.288 270.805 105.837 275.495 100.729 282.953C79.308 314.239 133.677 309.829 148.955 310.532C139.067 318.928 101.289 358.563 99.04 367.943C96.5094 378.448 96.5094 462.219 96.2734 480.273C95.948 504.571 90.604 559.729 108.508 573.705H78.7467C73.8267 573.705 69.7947 577.737 69.7947 582.664C69.7947 587.588 73.8267 591.62 78.7467 591.62H653.919C658.844 591.62 662.872 587.588 662.872 582.664C662.872 577.737 658.844 573.705 653.919 573.705H623.972C646.703 555.32 633.579 461.279 634.093 428.073C635.123 366.909 633.203 349.651 583.615 310.532C599.833 309.784 648.579 315.644 633.016 284.876C628.328 275.589 598.521 263.957 587.505 276.809C565.195 302.887 567.588 274.84 547.197 245.479C544.995 241.068 542.981 237.084 541.011 233.423C538.669 236.049 536 238.255 532.997 239.804L566.883 305.467C546.213 305.325 525.407 304.48 504.503 303.451C494.331 314.003 476.571 320.1 464.899 309.029C462.976 307.343 457.495 303.779 454.588 304.013C451.257 306.733 444.932 317.24 445.964 321.601C446.479 323.008 446.855 324.509 446.995 326.057C448.544 339.987 436.213 351.245 423.888 354.995C409.828 360.06 391.175 356.309 385.596 340.925L385.503 340.737C384.661 338.159 381.421 332.248 378.615 331.263C374.487 332.06 364.269 338.159 363.007 342.191C359.399 357.904 341.209 363.391 326.964 360.153C311.919 357.251 297.389 344.629 301.232 328.168C301.703 325.543 301.796 319.256 300.108 316.96C295.843 315.739 283.844 315.177 281.219 318.131C270.44 330.467 250.989 325.305 240.304 315.504C236.881 312.361 233.883 308.329 231.727 303.917C209.088 305.091 186.919 305.841 165.689 305.467C172.484 288.347 180.78 272.821 190.153 256.172C191.888 253.077 193.435 250.263 194.841 247.636C192.216 244.585 190.153 241.068 188.655 237.459C178.812 252.608 170.376 269.256 165.829 278.217C150.784 307.859 153.501 273.059 133.021 271.556" fill="#ED1C24"/>
<path fill-rule="evenodd" clip-rule="evenodd" d="M422.013 225.967L394.691 198.623L397.547 195.713L424.917 223.105L422.013 225.967ZM415.544 232.484L388.175 205.095L391.081 202.233L418.404 229.579L415.544 232.484ZM397.5 187.787C396.8 187.084 395.907 186.709 394.919 186.709C393.935 186.709 393.049 187.084 392.347 187.787L389.159 190.931C383.956 185.677 379.503 181.315 375.191 177.001L390.516 161.615L396.937 155.189C406.033 158.849 416.528 156.739 423.467 149.796C429.748 143.557 432.139 134.364 429.748 125.829L429.041 123.389L412.407 140.087L398.531 126.204L415.172 109.505L412.779 108.852C404.248 106.459 395.065 108.852 388.784 115.087C381.893 122.028 379.784 132.583 383.44 141.637L377.021 148.107V148.06V148.107L361.599 163.492C353.868 155.847 344.539 146.56 330.667 132.676C330.667 132.676 330.667 132.629 330.619 132.583L323.963 121.185C323.869 120.999 323.728 120.809 323.541 120.671L312.295 112.884C311.684 112.461 310.84 112.556 310.327 113.071L305.309 118.089C304.748 118.604 304.699 119.451 305.124 120.06L312.903 131.317C313.043 131.504 313.231 131.644 313.417 131.787L324.807 138.447C324.855 138.447 324.855 138.447 324.903 138.447C338.305 151.86 347.819 161.38 355.836 169.307L340.416 184.692L333.993 191.119C324.948 187.46 314.403 189.571 307.468 196.512C301.232 202.749 298.843 211.943 301.232 220.48L301.889 222.917L318.573 206.219L332.447 220.103L315.761 236.801L318.197 237.459C326.731 239.851 335.915 237.459 342.149 231.22C349.085 224.279 351.195 213.727 347.539 204.673L353.96 198.199L369.377 182.769C373.927 187.272 378.377 191.68 383.393 196.747L380.257 199.888C379.552 200.592 379.177 201.483 379.177 202.469C379.177 203.453 379.552 204.343 380.257 205.048L415.593 240.413C416.292 241.116 417.188 241.492 418.172 241.492C419.156 241.492 420.044 241.116 420.745 240.413L432.844 228.311C433.541 227.609 433.917 226.716 433.917 225.732C433.917 224.748 433.541 223.857 432.844 223.152L397.5 187.787" fill="#2E3192"/>
<g clip-path="url(#clip0)">
<path d="M66.5705 701.263C75.4453 701.263 79.4401 697.421 79.4401 693.155C79.4401 689.026 76.1878 687.318 68.7899 687.318H54.4406L50.5937 701.263H66.5705ZM57.3997 736.55C65.8307 736.55 70.8613 732.993 70.8613 728.012C70.8613 723.743 67.1624 721.753 59.7645 721.753H44.8258L40.6805 736.55H57.3997ZM27.8107 662.134H73.6725C105.478 662.134 113.172 673.375 113.172 685.613C113.172 697.706 104.738 707.809 88.9094 711.793C98.672 714.212 105.774 721.184 105.774 731.43C105.774 748.218 91.8685 761.736 56.364 761.736H0L27.8107 662.134Z" fill="#2E3192"/>
<path d="M173.968 709.515C185.506 709.515 191.572 704.395 191.572 698.134C191.572 696.14 190.833 694.292 189.353 692.867C187.43 691.019 184.027 690.023 179.147 690.023H166.866L161.392 709.515H173.968ZM140.091 662.134H180.476C199.56 662.134 211.692 666.12 218.644 672.808C224.414 678.355 226.782 685.752 226.782 693.581C226.782 709.089 218.348 722.467 197.932 728.583L212.284 761.736H175.004L163.466 733.279H154.884L146.894 761.736H112.278L140.091 662.134Z" fill="#2E3192"/>
<path d="M252.813 662.134H287.429L259.619 761.734H225.002L252.813 662.134Z" fill="#2E3192"/>
<path d="M277.959 745.656L297.784 722.891C309.619 732.423 321.751 736.976 332.696 736.976C337.135 736.976 340.242 735.411 340.242 732.565C340.242 729.437 338.316 728.441 323.227 723.034C303.998 716.203 294.973 709.658 294.973 695.004C294.973 675.794 313.317 660.141 341.571 660.141C360.064 660.141 376.487 665.833 387.728 675.082L367.906 697.847C360.064 691.729 348.969 686.748 338.022 686.748C333.584 686.748 330.477 687.887 330.477 690.733C330.477 693.723 332.696 694.292 347.046 699.415C364.651 705.673 375.896 712.788 375.896 728.014C375.896 748.077 358.735 763.728 328.997 763.728C308.435 763.728 290.534 756.611 277.959 745.656Z" fill="#2E3192"/>
<path d="M389.058 720.189C389.058 693.01 410.806 660 455.481 660C477.821 660 493.648 671.381 497.939 689.026L467.022 701.975C464.802 693.864 458.736 689.882 450.896 689.882C435.361 689.882 425.304 703.54 425.304 717.198C425.304 728.155 432.406 734.273 441.575 734.273C449.565 734.273 456.073 730.574 461.695 723.886L485.663 742.1C475.306 755.191 460.216 763.869 438.172 763.869C409.178 763.869 389.058 746.938 389.058 720.189Z" fill="#2E3192"/>
<path d="M677.82 709.515C689.359 709.515 695.425 704.395 695.425 698.134C695.425 696.14 694.686 694.292 693.206 692.867C691.282 691.019 687.879 690.023 682.999 690.023H670.718L665.244 709.515H677.82ZM643.944 662.134H684.329C703.411 662.134 715.544 666.12 722.496 672.808C728.266 678.355 730.633 685.752 730.633 693.581C730.633 709.089 722.2 722.467 701.784 728.583L716.135 761.736H678.856L667.317 733.279H658.736L650.746 761.736H616.13L643.944 662.134Z" fill="#2E3192"/>
<path d="M547.392 725.095H547.493L563.517 700.907L547.392 725.095Z" fill="#2E3192"/>
<path d="M591.183 661.778H556.859L485.26 762.089H522.985L563.517 700.907L570.027 762.089H606.865L591.183 661.778Z" fill="#2E3192"/>
<path d="M515.063 762.089H550.458L633.168 683.524H601.41L515.063 762.089Z" fill="#ED1C24"/>
</g>
<defs>
<clipPath id="clip0">
<rect width="732" height="105" fill="white" transform="translate(0 660)"/>
</clipPath>
</defs>
</svg>
